/* XPM */
static const char *square_xpm[] = {
/* columns rows colors chars-per-pixel */
"100 55 28 1 ",
"  c #6E6E6E",
". c #6F6F6F",
"X c #707070",
"o c #727272",
"O c #737373",
"+ c #747474",
"@ c #757575",
"# c #727272",
"$ c #787878",
"% c #868686",
"& c #878787",
"* c #8A8A8A",
"= c #A6A6A6",
"- c #A7A7A7",
"; c #A9A9A9",
": c #CCCCCC",
"> c #CDCDCD",
", c #D0D0D0",
"< c #D1D1D1",
"1 c #D2D2D2",
"2 c #D8D8D8",
"3 c #E2E2E2",
"4 c #ECECEC",
"5 c #EDEDED",
"6 c #EEEEEE",
"7 c #F9F9F9",
"8 c #FEFEFE",
"9 c #FFFFFF",
/* pixels */
"9999999999999999999999999999999999999999999999999999999999999999999999999999999999999999999999999999",
"9999999999999999999999999999999999999999999999999999999999999999999999999999999999999999999999999999",
"9999999999999999999999999999999999999999999999999999999999999999999999999999999999999999999999999999",
"9999999999999999999999999999999999999999999999999999999999999999999999999999999999999999999999999999",
"9999999999999999999999999999999999999999999999999999999999999999999999999999999999999999999999999999",
"9999999999999999999999999999999999999999999999999999999999999999999999999999999999999999999999999999",
"9999999999999999999999999999999999999999999999999999999999999999999999999999999999999999999999999999",
"9999999999999999999999999999999999999999999999999999999999999999999999999999999999999999999999999999",
"9999999999999999999999999999999999999999999999999999999999999999999999999999999999999999999999999999",
"9999999999999999999999999999999999999999999999999999999999999999999999999999999999999999999999999999",
"9999999999999999999999999999999999999999999999999999999999999999999999999999999999999999999999999999",
"9999999999999999999999999999999999999999999999999999999999999999999999999999999999999999999999999999",
"9999999999999999999999999999999999999999999999999999999999999999999999999999999999999999999999999999",
"9999999999999999999999999999999999999999999999999999999999999999999999999999999999999999999999999999",
"9999999999999999999999999999999999999999999999999999999999999999999999999999999999999999999999999999",
"9999999999999999999999999999999999999999999999999999999999999999999999999999999999999999999999999999",
"9999999999999999999999999999999999999999999999999999999999999999999999999999999999999999999999999999",
"9999999999999999999999999999999999999999999999999999999999999999999999999999999999999999999999999999",
"9999999999999999999999999999999999999999999999999999999999999999999999999999999999999999999999999999",
"9999999999999999999999999999999999999999999999999999999999999999999999999999999999999999999999999999",
"9999999999999999999999999999999999999999999999999999999999999999999999999999999999999999999999999999",
"9999999999999999999999999999999999999999999999999999999999999999999999999999999999999999999999999999",
"9999999999999999999999999999999999999999999999999999999999999999999999999999999999999999999999999999",
"9999999999999999999999999999999999999999999999999999999999999999999999999999999999999999999999999999",
"9999997432111111111111111111111111111111111111111111111111111111111111111111111111111111112347999999",
"9999994:;*$o############################################################################o$*;:4999999",
"9999994:=%o..oooooooooooooooooooooooooooooooooooooooooooooooooooooooooooooooooooooooooo..o%=:4999999",
"9999994:=%#.oo##oooo########oo##oooo#####ooo########oo##oooo#####oo#########oo##oo####oo.#%=:4999999",
"9999994:=%#.oo##oo####oo####ooooo#oo####ooo###o#####ooooo#oo####oooo########oooooo####oo.#%=:4999999",
"9999994:=%#.oo###o####oo####oooo##oo#####oo###oo####oooo##oo#####oo###oo####ooooooo###oo.#%=:4999999",
"9999994:=%#.oo########ooooo###oo########oooooooo##oo######oooooo######oooooo###oo#####oo.#%=:4999999",
"9999994:=%#.oo###o####ooooo###oo########oooooooo##ooo#####oooo#o######oooooo###o#o####oo.#%=:4999999",
"9999994:=%#.oo##oooo#ooooo####oooo#####o##oooo####oooo#####o####o#oo#ooooo####oo######o..#%=:4999999",
"9999994:=%#.oo##oooo##oooo####oooooo###o#ooo######oooo#####o####oooooooooo####ooo###ooo..#%=:4999999",
"9999994:=%#.oooo##ooooooo####ooooo####oo##oooo######ooo########oooooooooo###oooooo####o..#%=:4999999",
"9999994:=%#.oooo##oooooooo####oooo####oo##oooo####oooo########oo##oooooo####o#oooo####o..#%=:4999999",
"9999994:=%#.oooo####oooo########o####ooo###ooo##oooooooo####oooo######oo########oooo##oo.#%=:4999999",
"9999994:=%#.oo#o######o#########oo##oooo####oo##oooooooo##oooooo######ooo#######oooo##oo.#%=:4999999",
"9999994:=%#.oo####oo########oo######oooo#ooo####o#########oooo########ooooo#o###oo##ooo..#%=:4999999",
"9999994:=%#.oo##o#oo########oo#o####oooo#ooo####oo###o####oooo##oo####oooo##oo##oo###oo..#%=:4999999",
"9999994:=%#.oo##ooooo######ooooo####oo#o##oo#o######oooo#ooo####oooo##oo####oooooo####oo.#%=:4999999",
"9999994:=%#.oo##ooooo######ooooooo##oo####oooo######oooo##oo####oooo##oo####oooooo####oo.#%=:4999999",
"9999994:=%#.oo##oo##oooooooo##oooooo########ooo##o####oo#####ooo###ooooo##oo##ooooo###oo.#%=:4999999",
"9999994:=%#.oo##o###oooooooo###ooooo########oooooooo##oo#####ooo##ooooooo#oo####oo####oo.#%=:4999999",
"9999994:=%#.oo##oo####oooo####oo##oo##ooooooooo#oooo#####o##oooo####oooooooo##########oo.#%=:4999999",
"9999994:=%#.oooooo#####oo#####oo###o#oooooooooo#oooo####oo###ooo#####o##oooo##########oo.#%=:4999999",
"9999994:=%#.oooooooooooooooooooo##oooooooooooo######oo##oo######oooooo######oo####oo###o.#%=:4999999",
"9999994:=%#.oooooo####oooo#o##oo##oooo##oooooo######ooo#oo######oooooo######ooo#o#oo##oo.#%=:4999999",
"9999994:=%#.oo#####################o#####o########oooo##ooo#oooo#o########oooo##oooo##oo.#%=:4999999",
"9999994:=%#.oo####################oo##############oooo##ooo#oooo##########oooo##ooooo#oo.#%=:4999999",
"9999994:=%#.oo####ooo#####oo##########oo#########ooo########ooo##########ooo########oooo.#%=:4999999",
"9999994:=%#..oooooooooooooooooooooooooooooooooooooooooooooooooooooooooooooooooooooooooo..o%=:4999999",
"9999994:;*$oo##########################################################################oo$*;:4999999",
"9999997432111111111111111111111111111111111111111111111111111111111111111111111111111111112347999999",
"9999999999999999999999999999999999999999999999999999999999999999999999999999999999999999999999999999",
"9999999999999999999999999999999999999999999999999999999999999999999999999999999999999999999999999999"
};
