/* XPM */
static char * square_xpm[] = {
"25 25 2 1",
" 	c #FFFFFF",
".	c #747474",
"                         ",
"                         ",
"  .....................  ",
"  .....................  ",
"  .....................  ",
"  .....................  ",
"  .....................  ",
"  .....................  ",
"  .....................  ",
"  .....................  ",
"  .....................  ",
"  .....................  ",
"  .....................  ",
"  .....................  ",
"  .....................  ",
"  .....................  ",
"  .....................  ",
"  .....................  ",
"  .....................  ",
"  .....................  ",
"  .....................  ",
"  .....................  ",
"  .....................  ",
"                         ",
"                         "};
