/* XPM */
static char * Untitled_xpm[] = {
"50 50 191 2",
"  	c #000000",
". 	c #070000",
"+ 	c #010000",
"@ 	c #1A0202",
"# 	c #200303",
"$ 	c #1F0202",
"% 	c #040000",
"& 	c #080000",
"* 	c #160101",
"= 	c #410909",
"- 	c #540F0F",
"; 	c #4B0B0B",
"> 	c #470A0A",
", 	c #4D0D0D",
"' 	c #601111",
") 	c #621212",
"! 	c #6E1616",
"~ 	c #5D1111",
"{ 	c #5B1111",
"] 	c #5E1111",
"^ 	c #651313",
"/ 	c #4B0C0C",
"( 	c #420909",
"_ 	c #400808",
": 	c #430909",
"< 	c #310505",
"[ 	c #340606",
"} 	c #420A0A",
"| 	c #5B1010",
"1 	c #611111",
"2 	c #641313",
"3 	c #671313",
"4 	c #701616",
"5 	c #6C1515",
"6 	c #6D1515",
"7 	c #580F0F",
"8 	c #3C0707",
"9 	c #2F0505",
"0 	c #330606",
"a 	c #140101",
"b 	c #090101",
"c 	c #3B0707",
"d 	c #570F0F",
"e 	c #711717",
"f 	c #761818",
"g 	c #7B1A1A",
"h 	c #7D1A1A",
"i 	c #811B1B",
"j 	c #7C1A1A",
"k 	c #801B1B",
"l 	c #8A1D1D",
"m 	c #911F1F",
"n 	c #861D1D",
"o 	c #751818",
"p 	c #6B1515",
"q 	c #7A1919",
"r 	c #881D1D",
"s 	c #932020",
"t 	c #7E1A1A",
"u 	c #7C1919",
"v 	c #821C1C",
"w 	c #871D1D",
"x 	c #811A1A",
"y 	c #841C1C",
"z 	c #891D1D",
"A 	c #550F0F",
"B 	c #530E0E",
"C 	c #5A1010",
"D 	c #490A0A",
"E 	c #370606",
"F 	c #280404",
"G 	c #0A0101",
"H 	c #110101",
"I 	c #480B0B",
"J 	c #922020",
"K 	c #8E1F1F",
"L 	c #8A1E1E",
"M 	c #641212",
"N 	c #350606",
"O 	c #3D0707",
"P 	c #590F0F",
"Q 	c #851C1C",
"R 	c #901F1F",
"S 	c #440909",
"T 	c #3A0707",
"U 	c #0F0101",
"V 	c #450909",
"W 	c #7F1A1A",
"X 	c #460A0A",
"Y 	c #0E0101",
"Z 	c #520E0E",
"` 	c #6F1616",
" .	c #851D1D",
"..	c #661313",
"+.	c #340505",
"@.	c #060000",
"#.	c #631313",
"$.	c #791919",
"%.	c #560F0F",
"&.	c #220303",
"*.	c #210303",
"=.	c #681414",
"-.	c #8C1F1F",
";.	c #1E0202",
">.	c #030000",
",.	c #721717",
"'.	c #020000",
").	c #120101",
"!.	c #821B1B",
"~.	c #2B0404",
"{.	c #681313",
"].	c #8B1E1E",
"^.	c #360707",
"/.	c #591010",
"(.	c #8F1F1F",
"_.	c #6A1414",
":.	c #3E0808",
"<.	c #400909",
"[.	c #791818",
"}.	c #731717",
"|.	c #601212",
"1.	c #8C1E1E",
"2.	c #691515",
"3.	c #8D1E1E",
"4.	c #4A0B0B",
"5.	c #280303",
"6.	c #912020",
"7.	c #6D1616",
"8.	c #4E0D0D",
"9.	c #801A1A",
"0.	c #390707",
"a.	c #0D0101",
"b.	c #7B1919",
"c.	c #1D0202",
"d.	c #771818",
"e.	c #3D0808",
"f.	c #4C0C0C",
"g.	c #4F0D0D",
"h.	c #4D0C0C",
"i.	c #691414",
"j.	c #190202",
"k.	c #5F1111",
"l.	c #300505",
"m.	c #540E0E",
"n.	c #711616",
"o.	c #691313",
"p.	c #721616",
"q.	c #741717",
"r.	c #490B0B",
"s.	c #330505",
"t.	c #8D1F1F",
"u.	c #380707",
"v.	c #2D0505",
"w.	c #1C0202",
"x.	c #2C0505",
"y.	c #3F0909",
"z.	c #240303",
"A.	c #270303",
"B.	c #8E1E1E",
"C.	c #2C0404",
"D.	c #260303",
"E.	c #2B0505",
"F.	c #3B0808",
"G.	c #500D0D",
"H.	c #550E0E",
"I.	c #440A0A",
"J.	c #360606",
"K.	c #250303",
"L.	c #130101",
"M.	c #100101",
"N.	c #260404",
"O.	c #2D0404",
"P.	c #420808",
"Q.	c #3F0808",
"R.	c #450A0A",
"S.	c #3C0808",
"T.	c #480A0A",
"U.	c #410808",
"V.	c #230303",
"W.	c #170101",
"X.	c #050000",
"Y.	c #1F0303",
"Z.	c #2A0404",
"`.	c #1E0303",
" +	c #180101",
".+	c #320505",
"++	c #320606",
"@+	c #290404",
"#+	c #150101",
"$+	c #0A0000",
"%+	c #090000",
"                                                                                                    ",
"                                                                                                    ",
"                                                            . . . +   @ # $ %                       ",
"      & * = - ; > , ' ) ! ~ { ] ^ / ( _ : < [ } | 1 ^ 2 3 ^ 4 ) ^ 2 5 6 2 ^ 7 8 9 0 ( 8 a b .       ",
"      $ c d 2 e 4 ! f g h i j k l m n o p p 4 q r s r j t u v w s r x y z s r ! A B C D E F G       ",
"    H ( I ~ 4 w J s s s s s s s s s s s s s s s s s s s s s s s s s s s s s s s s K L M 8 N @       ",
"    G O P o Q R s s s s s s s s s s s s s s s s s s s s s s s s s s s s s s s s s s s 4 S T 9       ",
"    U V ' t J s s s s s s s s s s s s s s s s s s s s s s s s s s s s s s s s s s s s W d X T       ",
"    Y Z `  .s s s s s s s s s s s s s s s s s s s s s s s s s s s s s s s s s s s s J r u ..+.      ",
"    @.#.$.K s s s s s s s s s s s s s s s s s s s s s s s s s s s s s s s s s s s s s J Q %.&.      ",
"    *.=.t -.s s s s s s s s s s s s s s s s s s s s s s s s s s s s s s s s s s s s s s z d ;.>.    ",
"  + H ,.n J s s s s s s s s s s s s s s s s s s s s s s s s s s s s s s s s s s s s s s $.> @ >.    ",
"  '.).,.z s s s s s s s s s s s s s s s s s s s s s s s s s s s s s s s s s s s s s s s !.2 ~.+     ",
"    U {.].s s s s s s s s s s s s s s s s s s s s s s s s s s s s s s s s s s s s s s s Q 3 ^.+     ",
"    + /.!.J s s s s s s s s s s s s s s s s s s s s s s s s s s s s s s s s s s s s s s (._.:.      ",
"      <.[.m s s s s s s s s s s s s s s s s s s s s s s s s s s s s s s s s s s s s s s J }.I       ",
"      |.1.s s s s s s s s s s s s s s s s s s s s s s s s s s s s s s s s s s s s s s s R }.~       ",
"      2.3.s s s s s s s s s s s s s s s s s s s s s s s s s s s s s s s s s s s s s s s s v 4.      ",
"      =.Q s s s s s s s s s s s s s s s s s s s s s s s s s s s s s s s s s s s s s s s s t N       ",
"      d ].s s s s s s s s s s s s s s s s s s s s s s s s s s s s s s s s s s s s s s s s #.5.>.    ",
"      / z s s s s s s s s s s s s s s s s s s s s s s s s s s s s s s s s s s s s s s s 6.7.[ .     ",
"      8.9.s s s s s s s s s s s s s s s s s s s s s s s s s s s s s s s s s s s s s s s -.o 0.a.    ",
"      X b.J s s s s s s s s s s s s s s s s s s s s s s s s s s s s s s s s s s s s s s L $.X c.>.  ",
"      ^ Q s s s s s s s s s s s s s s s s s s s s s s s s s s s s s s s s s s s s s s s 1.d.e.H     ",
"      ` 1.s s s s s s s s s s s s s s s s s s s s s s s s s s s s s s s s s s s s s s s s h ) Y     ",
"      /.r J s s s s s s s s s s s s s s s s s s s s s s s s s s s s s s s s s s s s s s s W C >.    ",
"      f.j s s s s s s s s s s s s s s s s s s s s s s s s s s s s s s s s s s s s s s s s (.g.'.    ",
"      /.W 6.s s s s s s s s s s s s s s s s s s s s s s s s s s s s s s s s s s s s s s J r h.a.    ",
"      / [.J s s s s s s s s s s s s s s s s s s s s s s s s s s s s s s s s s s s s s s s i.e.j.>.  ",
"      > 4 s s s s s s s s s s s s s s s s s s s s s s s s s s s s s s s s s s s s s s s s k.l.j.%   ",
"      8.b.s s s s s s s s s s s s s s s s s s s s s s s s s s s s s s s s s s s s s s s s - 9 * +   ",
"      , !.J s s s s s s s s s s s s s s s s s s s s s s s s s s s s s s s s s s s s s s s [.X U     ",
"      P t s s s s s s s s s s s s s s s s s s s s s s s s s s s s s s s s s s s s s s s s f m.      ",
"      ! Q s s s s s s s s s s s s s s s s s s s s s s s s s s s s s s s s s s s s s s s m t )       ",
"      n.v J s s s s s s s s s s s s s s s s s s s s s s s s s s s s s s s s s s s s s s m  .-       ",
"      3 u K J s s s s s s s s s s s s s s s s s s s s s s s s s s s s s s s s s s s s s J o ~       ",
"      c o.].6.s s s s s s s s s s s s s s s s s s s s s s s s s s s s s s s s s s s s s R ! e.      ",
"      c p.K J s s s s s s s s s s s s s s s s s s s s s s s s s s s s s s s s s s s s J 1.q.r.      ",
"    + s.! t.s s s s s s s s s s s s s s s s s s s s s s s s s s s s s s s s s s s s s R t C ^.      ",
"    . / $.K s s s s s s s s s s s s s s s s s s s s s s s s s s s s s s s s s s s s s s }.e.H       ",
"  + & u.n.K s s s s s s s s s s s s s s s s s s s s s s s s s s s s s s s s s s s s s (.j ~ e.      ",
"  >.H v.2 ].s s s s s s s s s s s s s s s s s s s s s s s s s s s s s s s s s s s s s t.q.( w.      ",
"  % c.x.y.C W 6.s s s s s s s s s s s s s s s s s s s s s s s s s s s s s s s s s s s 1.3 X z.%     ",
"  . A.A.v.u.! J s s R B.K (.6.J J J s s s s s s s s m K R m s s R R R R m J s s m m  .,.P : C..     ",
"  + H D.E.9 F.r.K K u n.r.~ 3 $.t.R (.3 | G.H.^ 1.t.J R | ~ p #./././.P b.].(.K n.~ B I.J.K.L.>.    ",
"  + M.c.&.N.~.O.J.I.X : u.P.Q.R.I.Z 1 r.u.+.r./.^ i.6 X ( ; ; F.S.Q.T.: 4.h., > 4.U.l.V.W.).a.      ",
"  X.* Y.V.K.*.*.Z.9 `.;.W.;.D.[ 5.~.P.A. +c.( I.:.< D.@ V..+++D.z.V.5.J.D.z.@+9 v.F #+G X.% +       ",
"  % >.@.                      $+Y %+$+'.                    M.% + @.'.*.%                           ",
"                                                                                                    ",
"                                                                                                    "};
